# xmcd CD database file
# Copyright (C) 1997 Ti Kan
# 
# Track frame offsets:
#     150
#     12535
#     21742
#     32307
#     43102
#     53545
#     65495
#     75635
#     86207
#     97397
# 
# Disc length: 1475 seconds
# 
# Revision: 1
# Processed by: cddbd v1.4b41PL1 Copyright (c) Steve Scherf et al.
# Submitted via: DiscPlay 4.0.4
# 
DISCID=8305c10a
DTITLE=CRYSTAL GAYLE - CRYSTAL GAYLE
DYEAR=1900
DGENRE=
TTITLE0=I'VE CRIED (THE BLUE RIGHT OUT OF MY EYES)
TTITLE1=SPARKLIN' LOOK OF LOVE
TTITLE2=EVERYBODY OUGHTA CRY
TTITLE3=MAMA IT'S DIFFERENT THIS TIME
TTITLE4=TOUCHING ME AGAIN
TTITLE5=SHOW ME HOW
TTITLE6=M.R.S. DEGREE
TTITLE7=I HOPE YOU'RE HAVIN' BETTER LUCK THAN ME
TTITLE8=CLOCK ON THE WALL
TTITLE9=TOO FAR
EXTD=
EXTT0=
EXTT1=
EXTT2=
EXTT3=
EXTT4=
EXTT5=
EXTT6=
EXTT7=
EXTT8=
EXTT9=
PLAYORDER=
